<?xml version="1.0" encoding="UTF-8" standalone="no"?>
<!-- Created with Inkscape (http://www.inkscape.org/) -->

<svg
   xmlns:dc="http://purl.org/dc/elements/1.1/"
   xmlns:cc="http://creativecommons.org/ns#"
   xmlns:rdf="http://www.w3.org/1999/02/22-rdf-syntax-ns#"
   xmlns:svg="http://www.w3.org/2000/svg"
   xmlns="http://www.w3.org/2000/svg"
   xmlns:sodipodi="http://sodipodi.sourceforge.net/DTD/sodipodi-0.dtd"
   xmlns:inkscape="http://www.inkscape.org/namespaces/inkscape"
   width="500"
   height="500"
   id="svg2"
   version="1.1"
   inkscape:version="0.48.4 r9939"
   sodipodi:docname="Nouveau document 1">
  <defs
     id="defs4">
    <filter
       inkscape:collect="always"
       id="filter3876">
      <feGaussianBlur
         inkscape:collect="always"
         stdDeviation="2.1771545"
         id="feGaussianBlur3878" />
    </filter>
  </defs>
  <sodipodi:namedview
     id="base"
     pagecolor="#ffffff"
     bordercolor="#666666"
     borderopacity="1.0"
     inkscape:pageopacity="0.0"
     inkscape:pageshadow="2"
     inkscape:zoom="0.79555215"
     inkscape:cx="196.54309"
     inkscape:cy="-45.606907"
     inkscape:document-units="px"
     inkscape:current-layer="layer1"
     showgrid="false"
     inkscape:window-width="1615"
     inkscape:window-height="1026"
     inkscape:window-x="65"
     inkscape:window-y="24"
     inkscape:window-maximized="1" />
  <metadata
     id="metadata7">
    <rdf:RDF>
      <cc:Work
         rdf:about="">
        <dc:format>image/svg+xml</dc:format>
        <dc:type
           rdf:resource="http://purl.org/dc/dcmitype/StillImage" />
        <dc:title></dc:title>
      </cc:Work>
    </rdf:RDF>
  </metadata>
  <g
     inkscape:label="Calque 1"
     inkscape:groupmode="layer"
     id="layer1"
     transform="translate(0,-552.36218)">
    <path
       style="fill:#ff00ff;fill-opacity:1;stroke:#4d1f1f;stroke-width:2.4000001;stroke-linejoin:miter;stroke-miterlimit:4;stroke-opacity:1;stroke-dasharray:19.2, 19.2;stroke-dashoffset:0"
       id="path2988"
       d="m 142.17363,756.49641 c 10.51748,-2.09988 20.70898,-5.3055 30.83321,-8.7907 13.65016,-4.58988 37.66865,-18.9869 -23.88486,14.77253 -1.27104,0.69711 2.39523,-1.64063 3.51264,-2.56416 2.86488,-2.36779 4.23864,-4.03953 6.7635,-6.76929 6.00846,-6.74699 12.58612,-12.93033 19.27692,-18.98617 5.36526,-4.48924 7.96344,-10.88721 10.29299,-17.28719 2.98203,-7.82399 5.45438,-15.8066 7.80622,-23.8351 2.13936,-6.11549 5.36298,-11.90101 4.9257,-18.53742 -1.2806,-5.35241 -6.12666,-7.92954 -10.15562,-11.05808 -4.80404,-3.04498 -9.2745,-6.55245 -13.96806,-9.75012 -4.57601,-3.10109 -9.4782,-5.52674 -14.16458,-8.48466 -5.05022,-2.69206 -10.9402,-2.94075 -16.54431,-3.24122 -7.29532,-0.49162 -14.61313,0.56992 -21.71639,2.19155 -7.53917,1.74753 -15.19088,2.5606 -22.75013,4.19186 -6.617103,1.60981 -12.571083,4.76549 -18.725343,7.5523 -3.96081,1.22596 -8.01516,2.69958 -11.62595,4.78971 -0.89948,0.52067 -3.52795,2.19698 -2.62438,1.68345 11.09549,-6.30591 22.1358,-12.70841 33.203693,-19.06262 -6.195983,4.29587 -11.176893,10.05583 -16.664203,15.19289 -5.97081,5.45389 -12.73062,9.96328 -17.61565,16.48378 -2.96869,4.90846 -3.84552,10.71674 -5.05881,16.24819 -0.98467,5.72375 -2.60905,11.29324 -3.54628,17.02641 -0.39902,5.12431 -1.98007,10.02315 -2.866104,15.06361 -0.643798,5.50791 -2.079652,10.86575 -2.899406,16.34682 -0.736517,5.60027 -0.830169,11.25515 -0.902575,16.89471 -0.04381,5.71065 -0.02409,11.42156 -0.01579,17.13231 -0.1304,5.70188 1.232063,11.28992 1.963488,16.91925 0.574572,4.81617 1.569985,9.69805 3.056577,14.32357 1.86809,4.71594 3.88323,9.37597 5.7615,14.0946 2.38695,5.65848 5.14058,11.14555 7.7649,16.69421 2.59712,5.60329 4.28587,11.56952 6.90073,17.15513 2.85397,5.355 4.14423,11.34119 6.7395,16.79873 2.2348,4.67661 3.89615,9.55318 6.88884,13.81633 3.58262,5.20094 7.26,10.30742 10.902233,15.46288 2.93473,4.39924 5.99958,8.82978 9.77036,12.56196 2.75905,3.36325 6.06564,6.17532 9.29716,9.07471 4.89817,3.56303 9.72722,7.1852 15.01379,10.16017 4.99732,3.30649 9.91777,6.7069 14.8742,10.07515 5.78741,3.70069 11.75242,7.06721 17.80727,10.31933 5.38125,2.21157 10.72856,4.47196 16.1949,6.48325 5.09284,1.57677 10.10349,3.89343 14.55459,6.84266 3.78407,2.74834 7.14353,5.18747 11.77928,6.19973 5.16833,0.80058 10.41937,0.75813 15.63553,0.78035 5.75587,-0.0593 11.37035,1.47532 16.74882,3.38306 2.3184,0.83198 4.7391,1.22469 7.15986,1.60552 0,0 -34.64233,24.17801 -34.64233,24.17801 l 0,0 c -2.53316,-0.5697 -5.0564,-1.17298 -7.49568,-2.08097 -5.14127,-1.66722 -10.51049,-2.4783 -15.92464,-2.33016 -5.48968,-0.10003 -11.05729,-0.16609 -16.38376,-1.65713 -4.62712,-1.6407 -8.35483,-4.45064 -12.385,-7.17621 -4.45325,-2.54178 -9.16317,-4.63162 -14.04325,-6.21349 -5.56423,-2.18614 -11.11466,-4.38576 -16.4839,-7.02929 -6.02267,-3.49548 -12.12066,-6.85316 -17.99001,-10.60813 -4.92876,-3.26069 -9.75842,-6.66503 -14.71767,-9.88067 -5.378003,-3.29473 -10.557313,-6.89854 -15.562293,-10.73626 -3.41686,-2.8926 -6.72082,-5.9023 -9.57508,-9.36726 -3.69823,-4.087 -6.91981,-8.58976 -9.84531,-13.25659 -3.60017,-5.20132 -7.51303,-10.13512 -11.068201,-15.36772 -3.110695,-4.4738 -5.021548,-9.49804 -7.22738,-14.45461 -2.541997,-5.4846 -3.916332,-11.40965 -6.642407,-16.81766 -2.709764,-5.56244 -4.40006,-11.52536 -6.918872,-17.17834 -2.628373,-5.63756 -5.470681,-11.17174 -7.956219,-16.87651 -1.909681,-4.78915 -4.044873,-9.47645 -5.991381,-14.24015 -1.670415,-4.84822 -2.671069,-10.07102 -3.332681,-15.13738 -0.666961,-5.80265 -2.12346,-11.52892 -2.201416,-17.36841 -0.0081,-5.72521 -0.02561,-11.45046 -0.0055,-17.17565 0.04185,-5.78977 0.08956,-11.59036 0.668262,-17.35683 0.655146,-5.52814 2.038294,-10.89061 2.801319,-16.37632 0.651505,-5.13445 2.266083,-9.99402 2.94939,-15.08505 0.760763,-5.85054 2.326268,-11.47756 3.44557,-17.24388 1.141226,-5.97374 2.348005,-12.03756 4.491008,-17.7225 4.21728,-7.41521 10.838242,-12.35266 17.496075,-17.51311 5.446119,-5.19594 10.680283,-10.57465 16.131613,-15.71941 18.19653,-10.70527 33.90067,-21.90881 53.177783,-28.95868 6.16512,-2.89786 12.53194,-5.32237 19.22306,-6.71461 7.54899,-1.46789 15.20973,-2.3001 22.69614,-4.11344 7.46211,-1.25892 14.99466,-2.16637 22.56928,-1.40552 6.17634,0.60356 12.47631,1.44872 17.79476,4.90921 4.6778,3.04033 9.82652,5.22606 14.25913,8.65093 4.62711,3.38142 9.33779,6.63547 14.03249,9.92241 4.99611,3.83669 10.06898,7.59603 11.88954,13.96749 1.05167,7.29561 -1.24929,13.73033 -4.46742,20.23728 -2.60232,7.96956 -4.53987,16.15795 -7.73462,23.93281 -2.18646,6.85844 -4.43345,13.81373 -9.28257,19.31488 -7.09297,5.62728 -13.54262,12.02754 -19.80458,18.56215 -1.17235,1.37503 -5.10021,6.03412 -6.39279,7.34469 -13.8004,13.99251 -32.63458,22.81972 -51.20734,28.89019 -10.46135,3.45286 -21.07599,6.49917 -31.89135,8.63164 0,0 33.84828,-25.33373 33.84828,-25.33373 z"
       inkscape:connector-curvature="0" />
    <path
       style="fill:#0000ff;fill-opacity:1;stroke:#4d1f1f;stroke-width:2.39767599;stroke-linejoin:miter;stroke-miterlimit:4;stroke-opacity:1;stroke-dasharray:19.18140784, 19.18140784;stroke-dashoffset:0"
       id="path2988-5"
       d="m 360.65834,756.59291 c -10.49706,-2.09989 -20.66877,-5.30553 -30.77334,-8.79075 -13.62365,-4.58991 -37.5955,-18.98702 23.83848,14.77262 1.26857,0.69711 -2.39057,-1.64064 -3.50582,-2.56418 -2.85931,-2.3678 -4.23041,-4.03955 -6.75036,-6.76933 -5.9968,-6.74703 -12.56168,-12.93041 -19.23949,-18.98628 -5.35484,-4.48927 -7.94798,-10.88728 -10.273,-17.2873 -2.97624,-7.82403 -5.44379,-15.80668 -7.79107,-23.83523 -2.1352,-6.11553 -5.35256,-11.90108 -4.91613,-18.53753 1.27811,-5.35245 6.11476,-7.92959 10.1359,-11.05815 4.79471,-3.045 9.25649,-6.55249 13.94094,-9.75018 4.56712,-3.10111 9.45979,-5.52677 14.13707,-8.48471 5.04042,-2.69208 10.91896,-2.94077 16.51219,-3.24124 7.28115,-0.49162 14.58475,0.56992 21.67422,2.19156 7.52453,1.74754 15.16138,2.56062 22.70595,4.19189 6.60425,1.60982 12.54667,4.76552 18.68898,7.55234 3.95312,1.22597 7.9996,2.6996 11.60338,4.78974 0.89773,0.52067 3.52109,2.19699 2.61928,1.68346 -11.07395,-6.30595 -22.09282,-12.70849 -33.13922,-19.06273 6.18395,4.29589 11.15519,10.05589 16.63185,15.19298 5.95921,5.45392 12.7059,9.96334 17.58144,16.48388 2.96292,4.90849 3.83805,10.7168 5.04899,16.24829 0.98275,5.72378 2.60398,11.29331 3.53939,17.02651 0.39824,5.12434 1.97622,10.0232 2.86053,15.06369 0.64255,5.50794 2.07562,10.86582 2.89378,16.34692 0.73508,5.6003 0.82856,11.25522 0.90082,16.89481 0.0437,5.71069 0.0241,11.42163 0.0158,17.13242 0.13015,5.70191 -1.22967,11.28999 -1.95968,16.91935 -0.57345,4.8162 -1.56693,9.69811 -3.05063,14.32366 -1.86446,4.71596 -3.87569,9.37602 -5.75031,14.09468 -2.38232,5.65852 -5.1306,11.14562 -7.74983,16.69431 -2.59207,5.60333 -4.27754,11.56959 -6.88733,17.15524 -2.84842,5.35503 -4.13618,11.34126 -6.72641,16.79883 -2.23046,4.67664 -3.88858,9.55324 -6.87546,13.81641 -3.57567,5.20097 -7.2459,10.30748 -10.88106,15.46298 -2.92903,4.39926 -5.98793,8.82983 -9.75139,12.56203 -2.75369,3.36327 -6.05386,6.17536 -9.27911,9.07477 -4.88866,3.56305 -9.70833,7.18524 -14.98463,10.16023 -4.98762,3.30651 -9.89851,6.70694 -14.84532,10.07521 -5.77617,3.70071 -11.7296,7.06725 -17.77269,10.31939 -5.3708,2.21159 -10.70773,4.47199 -16.16346,6.48329 -5.08295,1.57678 -10.08387,3.89346 -14.52632,6.8427 -3.77673,2.74836 -7.12966,5.1875 -11.75641,6.19977 -5.15829,0.80059 -10.39914,0.75814 -15.60517,0.78036 -5.74469,-0.0593 -11.34827,1.47532 -16.7163,3.38308 -2.31389,0.83198 -4.72989,1.22469 -7.14595,1.60553 0,0 34.57506,24.17817 34.57506,24.17817 l 0,0 c 2.52824,-0.5697 5.04658,-1.17301 7.48112,-2.081 5.13129,-1.66723 10.49008,-2.47832 15.89372,-2.33017 5.47902,-0.10004 11.03582,-0.1661 16.35195,-1.65714 4.61813,-1.64071 8.3386,-4.45067 12.36095,-7.17626 4.4446,-2.54179 9.14537,-4.63165 14.01598,-6.21353 5.55342,-2.18615 11.09308,-4.38578 16.45189,-7.02933 6.01097,-3.4955 12.09712,-6.8532 17.95508,-10.60819 4.91919,-3.26071 9.73947,-6.66507 14.68909,-9.88073 5.36755,-3.29475 10.53681,-6.89858 15.53207,-10.73633 3.41023,-2.89262 6.70777,-5.90233 9.55649,-9.36731 3.69105,-4.08703 6.90637,-8.58982 9.82619,-13.25667 3.59318,-5.20136 7.49844,-10.13519 11.04671,-15.36782 3.10465,-4.47383 5.0118,-9.4981 7.21334,-14.4547 2.53706,-5.48463 3.90873,-11.40971 6.6295,-16.81776 2.70451,-5.56247 4.39152,-11.52543 6.90545,-17.17844 2.62327,-5.6376 5.46006,-11.17181 7.94077,-16.87661 1.90597,-4.78918 4.03702,-9.47651 5.97975,-14.24024 1.66716,-4.84825 2.66588,-10.07108 3.3262,-15.13747 0.66567,-5.80269 2.11934,-11.52899 2.19714,-17.36852 0.008,-5.72524 0.0255,-11.45053 0.005,-17.17575 -0.0418,-5.78981 -0.0894,-11.59043 -0.66696,-17.35694 -0.65387,-5.52817 -2.03433,-10.89067 -2.79588,-16.37642 -0.65024,-5.13448 -2.26168,-9.99408 -2.94367,-15.08514 -0.75928,-5.85057 -2.32175,-11.47762 -3.43887,-17.24397 -1.13901,-5.97378 -2.34345,-12.03763 -4.48229,-17.72261 -4.2091,-7.41525 -10.8172,-12.35273 -17.4621,-17.51322 -5.43555,-5.19597 -10.65954,-10.57471 -16.10029,-15.7195 -18.16119,-10.70534 -33.83484,-21.90894 -53.07452,-28.95886 -6.15314,-2.89787 -12.5076,-5.3224 -19.18573,-6.71465 -7.53433,-1.4679 -15.18019,-2.30011 -22.65207,-4.11346 -7.44762,-1.25893 -14.96554,-2.16638 -22.52545,-1.40553 -6.16435,0.60356 -12.45209,1.44873 -17.76021,4.90924 -4.66872,3.04035 -9.80744,5.22609 -14.23144,8.65098 -4.61812,3.38144 -9.31966,6.63551 -14.00524,9.92247 -4.98641,3.83672 -10.04943,7.59608 -11.86645,13.96758 -1.04963,7.29565 1.24686,13.73041 4.45874,20.2374 2.59727,7.96961 4.53106,16.15805 7.7196,23.93295 2.18222,6.85849 4.42484,13.81382 9.26455,19.31499 7.07919,5.62732 13.51632,12.02761 19.76612,18.56226 1.17007,1.37504 5.09031,6.03416 6.38038,7.34474 13.7736,13.99259 32.57121,22.81986 51.1079,28.89036 10.44104,3.45288 21.03507,6.49921 31.82943,8.6317 0,0 -33.78256,-25.33389 -33.78256,-25.33389 z"
       inkscape:connector-curvature="0" />
    <path
       style="fill:#ff00ff;fill-opacity:1;stroke:none;stroke-width:2.39999999999999991;stroke-linejoin:miter;stroke-miterlimit:4;stroke-opacity:1;stroke-dasharray:none;stroke-dashoffset:0;opacity:1;filter:url(#filter3876)"
       id="path3792"
       d="m -332.97383,1101.9336 c 3.01787,0.1007 6.06145,0.4607 8.91077,-0.6872 2.58908,-0.7404 5.02509,-1.9615 7.62799,-2.6442 2.39217,-0.8199 4.58863,-2.0733 6.91922,-3.0267 26.46651,-13.7284 -117.57557,65.9567 3.00662,-1.8449 11.39541,-6.4075 -22.65417,13.055 -33.97549,19.5925 -0.69305,0.4002 1.38203,-0.8108 2.03818,-1.269 2.0731,-1.2805 4.11592,-2.6068 6.14174,-3.9636 1.93078,-1.5664 4.02009,-2.8788 6.04442,-4.3134 1.9888,-1.3872 3.8249,-2.9553 5.67446,-4.5153 2.21676,-1.4466 4.32589,-3.076 6.37035,-4.7604 1.89989,-1.8005 4.20001,-3.0924 6.09048,-4.91 1.59928,-1.7674 3.27361,-3.4863 4.48439,-5.5509 1.24342,-1.2355 1.66772,-3.0001 2.74568,-4.3271 1.22514,-1.3093 1.80747,-3.0497 2.61569,-4.6319 0.72368,-2.1231 1.77568,-4.0946 2.7159,-6.1198 0.66463,-0.8002 1.02782,-1.8117 1.61836,-2.655 0.53057,-0.7577 1.16721,-1.2076 1.64043,-2.0226 1.13859,-1.5088 2.49368,-2.8133 3.41892,-4.4803 1.27383,-2.5621 2.05027,-5.3276 2.94839,-8.0346 0.89467,-2.4116 1.54505,-4.8928 1.85599,-7.4452 0.29358,-2.7473 0.2362,-5.514 0.25815,-8.2722 0.14079,-2.4264 -0.18876,-4.8025 -0.55676,-7.1896 -0.25767,-2.0404 -0.42768,-4.0738 -0.81963,-6.0936 -0.31473,-1.9793 -0.82629,-3.9216 -1.4325,-5.8299 -0.69299,-2.011 -1.64267,-3.9162 -2.5527,-5.834 -1.07016,-2.0403 -2.3902,-3.9226 -3.51269,-5.9378 -1.00046,-2.1599 -2.77558,-3.4998 -4.51323,-5.0015 -2.27472,-1.44026 -4.44404,-3.08235 -6.86733,-4.26362 -3.22522,-1.42365 -6.50868,-2.69277 -9.66793,-4.27123 -2.18834,-0.851 -4.20411,-2.10803 -6.42232,-2.88545 -0.50559,-0.1772 -1.02816,-0.30163 -1.54224,-0.45245 -0.52585,-0.19024 -1.05171,-0.38047 -1.57756,-0.57071 -2.69325,-0.60857 -5.23086,-1.72156 -7.88678,-2.44442 -2.6123,-0.93148 -5.27436,-1.79224 -7.99255,-2.36095 -2.29007,-0.18842 -4.4408,-0.9501 -6.71941,-1.2307 -2.37619,-0.16727 -4.76011,-0.17138 -7.14099,-0.16794 -3.25596,-0.0259 -6.51207,-0.0389 -9.7679,-0.0773 -4.91912,-0.0721 -9.78927,0.76533 -14.66883,1.28177 -4.25244,0.4388 -8.30221,1.63198 -12.34109,2.95132 -1.1705,0.75536 -2.54763,1.01006 -3.81895,1.50451 -0.91259,0.35493 -1.21189,0.62659 -2.01006,1.17287 11.33831,-6.50264 22.67661,-13.00527 34.01491,-19.50791 -2.32271,1.43449 -4.58498,2.9827 -6.8705,4.48943 -12.15186,9.49249 -0.81825,0.72673 -37.40961,21.79784 -0.93929,0.54089 -3.78511,2.11397 -2.84675,1.57145 34.58154,-19.99356 43.94586,-26.21397 31.55698,-18.04981 -3.45916,2.4427 -6.7946,5.05569 -9.9085,7.92628 -2.87926,2.45749 -5.00738,5.57379 -7.2552,8.57898 -1.92724,2.20042 -3.32073,4.72401 -4.48462,7.38774 -1.35421,3.2683 -2.69608,6.5458 -3.90161,9.8722 -1.16689,3.3652 -3.01335,6.4218 -4.49559,9.6469 -1.54676,4.0688 -3.12714,8.1291 -4.49567,12.2619 -1.52593,4.2705 -2.69522,8.6522 -3.56201,13.1009 -0.82409,3.6352 -1.25498,7.3387 -1.90569,11.0037 -0.45674,3.1219 -1.23399,6.1806 -1.63025,9.311 -0.61638,3.7653 -1.06725,7.5396 -1.30501,11.3482 -0.16509,3.9728 -0.24097,7.9506 -0.20674,11.927 -0.0253,3.7015 -0.0698,7.3915 0.45064,11.0628 0.53817,4.3029 1.48349,8.5327 2.48625,12.7467 0.91299,3.9385 1.76824,7.8885 2.53952,11.8572 0.64849,4.1385 1.45641,8.2134 2.54782,12.2577 1.01088,4.5833 2.10807,9.152 2.94842,13.7701 0.7874,4.0287 1.40675,8.0925 2.34671,12.0896 0.80357,3.2973 2.13614,6.3964 3.59416,9.4458 1.82558,3.6337 3.33669,7.4118 4.95138,11.1412 1.73267,4.1714 3.72144,8.2225 5.73802,12.2621 1.60083,3.7162 3.83002,7.0287 6.29547,10.2091 2.20095,2.898 4.14828,5.953 6.09738,9.0227 2.33354,3.3774 4.89089,6.5894 7.31663,9.8998 2.56281,3.5877 5.14197,7.175 7.87693,10.6365 3.01886,3.4993 5.99745,7.0332 9.10007,10.4592 2.49642,2.5766 4.83754,5.2843 7.17891,7.9993 2.36496,2.7263 4.85917,5.3359 7.38662,7.9109 2.39479,2.9545 5.41363,5.2833 8.2979,7.728 1.9269,1.5686 3.96987,2.9366 6.04856,4.2845 2.35352,1.9823 4.67918,3.9883 7.1547,5.8189 3.21567,2.1465 6.3127,4.468 9.39315,6.8043 2.83309,2.2333 5.91881,4.106 8.85434,6.1868 2.92863,1.655 5.51495,3.8286 8.47367,5.4229 3.44987,1.669 6.76316,3.5288 9.88197,5.7461 2.85671,2.0147 5.82383,3.7915 8.91467,5.4262 2.9437,1.833 6.11607,3.1964 9.25612,4.6327 2.46538,0.7607 4.81808,1.8009 7.2254,2.7127 1.85808,0.5143 3.83819,0.9518 5.50271,1.9461 2.45436,0.4862 4.81853,1.1899 7.20572,1.9853 3.57527,0.813 7.14437,1.6864 10.74661,2.3783 1.45552,0.055 3.07104,0.6238 4.53726,0.3673 0.53928,-0.094 1.00798,-0.4287 1.52164,-0.6181 0.90921,-0.1884 1.54872,-0.204 2.27307,-0.7972 0,0 -32.46312,25.1549 -32.46312,25.1549 l 0,0 c -0.90366,-5e-4 -1.74017,0.1334 -2.63194,0.2776 -2.28258,-0.03 -4.54918,-0.6649 -6.76792,-1.157 -3.5451,-0.9433 -7.12764,-1.7302 -10.66864,-2.6912 -2.68827,-0.6406 -5.48805,-0.9449 -7.97973,-2.2133 -1.80033,-0.4506 -3.52351,-1.2705 -5.27489,-1.8759 -2.37803,-1.0239 -4.85392,-1.8137 -7.17169,-2.9793 -3.17964,-1.4763 -6.22276,-3.21 -9.28998,-4.9039 -3.19083,-1.7324 -6.22632,-3.7109 -9.21321,-5.7739 -3.07205,-2.0522 -6.31425,-3.819 -9.59704,-5.5101 -2.98597,-1.7769 -5.87633,-3.6956 -8.7477,-5.6516 -3.04739,-2.0167 -5.97429,-4.2075 -8.89446,-6.4028 -3.07002,-2.3502 -6.24922,-4.5454 -9.44591,-6.719 -2.42237,-1.8169 -4.70516,-3.8291 -7.25425,-5.4669 -2.17902,-1.4459 -4.11192,-3.1944 -6.08673,-4.9016 -2.91056,-2.5738 -5.88376,-5.094 -8.4315,-8.0419 -2.57985,-2.6479 -5.17268,-5.2887 -7.5746,-8.1016 -2.32512,-2.7131 -4.70928,-5.367 -7.08684,-8.0325 -2.97868,-3.5801 -5.93084,-7.1811 -8.95696,-10.7209 -2.83768,-3.4664 -5.62372,-6.9867 -8.18326,-10.6644 -2.46994,-3.3643 -4.9853,-6.6937 -7.38927,-10.1048 -1.99388,-2.9466 -4.06582,-5.8372 -6.10889,-8.7496 -2.44643,-3.4694 -4.71758,-7.0428 -6.46258,-10.9286 -2.04064,-4.0968 -4.00662,-8.2273 -5.85684,-12.4141 -1.63909,-3.6498 -3.18185,-7.3513 -5.00025,-10.9147 -1.67168,-3.2946 -3.11633,-6.662 -4.02747,-10.256 -0.97028,-4.0952 -1.4783,-8.2663 -2.29215,-12.3926 -0.7477,-4.517 -1.81295,-8.9686 -2.80368,-13.4369 -1.09205,-4.1045 -2.24655,-8.1827 -2.78292,-12.4094 -0.83753,-3.9247 -1.47438,-7.8917 -2.34429,-11.8106 -1.02739,-4.293 -2.08681,-8.5821 -2.78587,-12.9391 -0.66945,-3.8574 -0.86533,-7.7401 -0.71901,-11.6531 0.0505,-4.0428 -0.0172,-8.0869 0.16047,-12.1274 0.15552,-3.8329 0.32479,-7.6905 1.01926,-11.4697 0.30592,-3.2381 0.84534,-6.4017 1.55187,-9.5739 0.66116,-3.7148 1.23255,-7.4453 2.06427,-11.1297 0.84437,-4.6028 1.83019,-9.2063 3.43661,-13.6101 1.31653,-4.1418 2.73655,-8.2328 4.15351,-12.3428 1.09527,-3.4124 2.79074,-6.5001 4.61149,-9.5765 1.15551,-3.3521 2.32748,-6.6925 3.67056,-9.9769 1.11128,-2.9275 2.14441,-5.927 4.06093,-8.4511 2.48968,-2.9924 4.55224,-6.318 7.21173,-9.1513 3.02221,-3.05946 6.20671,-5.91229 9.6717,-8.4657 0.52349,-0.41088 0.99786,-0.89356 1.57048,-1.23263 12.03235,-7.12491 24.14734,-14.10935 36.22906,-21.15021 0.49268,-0.28712 0.99455,-0.55819 1.49389,-0.83357 0.46773,-0.25794 1.86927,-1.03446 1.40728,-0.76637 -11.16514,6.47905 -22.36674,12.8953 -33.51723,19.39954 -0.40477,0.23611 0.84999,-0.39478 1.27498,-0.59217 2.14262,-1.74916 4.5823,-2.98861 6.65829,-4.80096 12.86156,-7.39977 26.81388,-18.53812 42.19258,-22.77374 4.06109,-1.08011 8.22725,-1.63448 12.40009,-2.08733 5.04081,-0.57348 10.08684,-1.21909 15.17336,-1.10907 3.35219,-0.0443 6.70511,-0.0795 10.05756,-0.0608 2.54449,0.0715 5.10362,0.1358 7.60474,0.65909 2.26546,0.52296 4.53803,0.97792 6.7913,1.54502 2.69926,0.80895 5.38359,1.6541 8.05939,2.53561 2.64824,0.8787 5.32067,1.686 7.92894,2.67993 3.31923,1.21003 6.50028,2.74422 9.67515,4.28891 3.2881,1.48359 6.71364,2.65705 9.89138,4.38084 2.55895,1.51156 5.17026,3.00449 7.449,4.9237 2.09812,1.79455 3.98054,3.74709 5.30181,6.20555 1.17285,2.09978 2.52585,4.07253 3.67432,6.18413 0.95828,2.08818 2.01762,4.12889 2.83058,6.28206 0.65693,2.0578 1.34093,4.12837 1.68304,6.26427 0.38113,2.0945 0.86326,4.1431 0.87868,6.2866 0.31525,2.5806 0.89218,5.1328 0.69399,7.7487 0.0262,2.8544 0.005,5.7097 -0.0436,8.5638 -0.1609,2.863 -0.50424,5.6909 -1.52857,8.3962 -0.97954,2.7379 -1.79549,5.5098 -2.62676,8.2926 -0.68447,1.918 -1.31197,3.9496 -2.90736,5.3203 -1.12745,1.0692 -0.0916,-0.049 -1.01647,1.4848 -0.66916,1.1096 -2.04578,1.5948 -2.45231,2.9326 -1.41305,1.5012 -2.2007,3.4683 -3.04384,5.325 -0.23771,0.8025 -0.32516,1.2426 -0.71029,1.9852 -0.14204,0.2738 -0.3815,0.4953 -0.49421,0.7825 -0.13968,0.3559 -0.12359,0.7588 -0.25207,1.1189 -0.0911,0.2555 -0.26665,0.4725 -0.39998,0.7087 -0.0915,0.2903 -0.18297,0.5806 -0.27446,0.8709 -1.63916,2.7563 0.78407,-1.1151 -0.97765,1.1062 -0.18411,0.2321 -0.23132,0.5493 -0.39479,0.7964 -0.15098,0.2282 -0.40546,0.3799 -0.54071,0.6178 -0.17941,0.3156 -0.25923,0.6782 -0.38884,1.0173 -0.18165,0.3066 -0.36329,0.6131 -0.54494,0.9197 -1.6298,1.8348 -2.5167,4.2839 -4.3692,5.9783 -1.67149,2.1354 -3.46862,4.2237 -5.98519,5.3921 -1.95401,1.8203 -4.00759,3.5062 -6.07413,5.1849 -0.61412,0.3221 -1.3432,0.6619 -1.88455,1.1104 -0.31462,0.2606 -0.54769,0.6113 -0.86634,0.867 -0.99733,0.8004 -2.13458,1.4458 -3.02323,2.3981 -0.65951,0.5093 -1.38038,0.9377 -2.02512,1.4656 -0.33608,0.2751 -0.58039,0.6559 -0.93287,0.9098 -0.88482,0.6371 -2.2419,1.1607 -3.11502,1.882 -1.87579,1.6236 -3.94768,2.8915 -5.9637,4.3206 -1.40194,0.7666 -0.72986,0.3241 -2.01152,1.3344 -11.97582,6.9858 -24.07484,13.7601 -36.01378,20.8087 -11.25886,6.6471 45.60137,-25.5821 33.97343,-19.604 -56.33062,28.9601 -22.6745,15.2532 -37.21573,21.1501 -2.29396,1.0839 -4.7128,1.8889 -7.12274,2.6723 -2.53787,1.0015 -5.1834,1.7704 -7.86863,2.2609 -3.18605,0.1542 -6.38023,-0.073 -9.56698,0.1297 0,0 33.1649,-24.0957 33.1649,-24.0957 z"
       inkscape:connector-curvature="0" />
    <path
       style="fill:#0000ff;fill-opacity:1;stroke:none;stroke-width:2.40625358000000000;stroke-linejoin:miter;stroke-miterlimit:4;stroke-opacity:1;stroke-dasharray:19.25002777999999992, 19.25002777999999992;stroke-dashoffset:0"
       id="path3792-6"
       d="m -140.76781,1099.8991 c -3.03367,0.1007 -6.09318,0.4607 -8.95741,-0.6873 -2.60264,-0.7404 -5.0514,-1.9615 -7.66792,-2.6441 -2.40469,-0.8199 -4.61265,-2.0733 -6.95543,-3.0267 -26.60505,-13.7282 118.19096,65.9557 -3.02236,-1.8448 -11.45506,-6.4074 22.77274,13.0547 34.15332,19.5922 0.69668,0.4002 -1.38927,-0.8108 -2.04885,-1.269 -2.08395,-1.2806 -4.13746,-2.6068 -6.17389,-3.9636 -1.94088,-1.5664 -4.04113,-2.8787 -6.07605,-4.3133 -1.99921,-1.3871 -3.84492,-2.9553 -5.70416,-4.5153 -2.22837,-1.4465 -4.34854,-3.0759 -6.4037,-4.7602 -1.90983,-1.8005 -4.22199,-3.0924 -6.12235,-4.91 -1.60765,-1.7674 -3.29075,-3.4862 -4.50787,-5.5508 -1.24992,-1.2355 -1.67644,-3.0001 -2.76005,-4.327 -1.23155,-1.3093 -1.81693,-3.0497 -2.62938,-4.6318 -0.72747,-2.1232 -1.78497,-4.0946 -2.73011,-6.1198 -0.66811,-0.8001 -1.0332,-1.8116 -1.62683,-2.6549 -0.53335,-0.7577 -1.17333,-1.2075 -1.64902,-2.0226 -1.14455,-1.5088 -2.50673,-2.8133 -3.43682,-4.4802 -1.2805,-2.562 -2.061,-5.3276 -2.96382,-8.0345 -0.89935,-2.4115 -1.55314,-4.8927 -1.8657,-7.4451 -0.29512,-2.7472 -0.23744,-5.5138 -0.25951,-8.2721 -0.14152,-2.4263 0.18975,-4.8023 0.55968,-7.1894 0.25902,-2.0404 0.42992,-4.0738 0.82392,-6.0935 0.31638,-1.9793 0.83061,-3.9215 1.44,-5.8299 0.69661,-2.0109 1.65126,-3.9161 2.56606,-5.8338 1.07576,-2.0403 2.40271,-3.9225 3.53107,-5.9377 1.0057,-2.1599 2.79011,-3.49982 4.53686,-5.00142 2.28662,-1.4402 4.4673,-3.0823 6.90327,-4.26356 3.2421,-1.42359 6.54275,-2.69276 9.71854,-4.27114 2.19979,-0.85099 4.22611,-2.10796 6.45593,-2.88545 0.50824,-0.1772 1.03354,-0.3016 1.55031,-0.45239 0.5286,-0.1903 1.05722,-0.3805 1.58582,-0.5707 2.70735,-0.60858 5.25824,-1.72157 7.92806,-2.44435 2.62597,-0.93149 5.30197,-1.79227 8.03438,-2.36097 2.30206,-0.18839 4.46405,-0.95008 6.75458,-1.23068 2.38863,-0.16729 4.78503,-0.17139 7.17837,-0.16789 3.273,-0.026 6.54616,-0.039 9.81903,-0.077 4.94486,-0.072 9.8405,0.76529 14.7456,1.28169 4.2747,0.43878 8.34566,1.63197 12.40569,2.95135 1.17662,0.75529 2.56096,1.00998 3.83893,1.50448 0.91737,0.35489 1.21823,0.62658 2.02059,1.17278 -11.39767,-6.5025 -22.79531,-13.005 -34.19295,-19.50759 2.33486,1.43448 4.60897,2.98265 6.90646,4.48943 12.21546,9.49224 0.82254,0.72669 37.60541,21.79745 0.94421,0.54089 3.80493,2.11394 2.86165,1.57134 -34.76254,-19.99315 -44.17587,-26.21345 -31.72215,-18.04949 3.47727,2.44267 6.83016,5.05563 9.96036,7.92618 2.89434,2.45747 5.03359,5.57372 7.29318,8.57887 1.93733,2.20034 3.3381,4.72394 4.50809,7.38756 1.3613,3.2683 2.7102,6.5457 3.92203,9.8721 1.173,3.3651 3.02913,6.4217 4.51912,9.6467 1.55486,4.0687 3.14351,8.129 4.5192,12.2617 1.53392,4.2705 2.70933,8.652 3.58066,13.1007 0.8284,3.6351 1.26154,7.3385 1.91566,11.0035 0.45913,3.1218 1.24045,6.1806 1.63878,9.3109 0.61961,3.7652 1.07284,7.5395 1.31184,11.348 0.16596,3.9727 0.24223,7.9505 0.20782,11.9268 0.0254,3.7015 0.0702,7.3914 -0.45299,11.0627 -0.54099,4.3028 -1.49125,8.5324 -2.49926,12.7464 -0.91778,3.9384 -1.7775,7.8884 -2.55282,11.857 -0.65188,4.1385 -1.46403,8.2133 -2.56115,12.2575 -1.01617,4.5833 -2.11911,9.1518 -2.96386,13.7699 -0.79152,4.0286 -1.4141,8.0924 -2.35899,12.0894 -0.80778,3.2973 -2.14732,6.3963 -3.61297,9.4456 -1.83514,3.6337 -3.35415,7.4117 -4.97729,11.141 -1.74174,4.1714 -3.74092,8.2224 -5.76806,12.262 -1.60921,3.7161 -3.85007,7.0285 -6.32842,10.2089 -2.21247,2.898 -4.16999,5.9529 -6.1293,9.0226 -2.34575,3.3773 -4.91648,6.5892 -7.35492,9.8996 -2.57622,3.5876 -5.16889,7.175 -7.91816,10.6364 -3.03466,3.4992 -6.02884,7.0331 -9.1477,10.459 -2.50949,2.5765 -4.86286,5.2842 -7.21648,7.9992 -2.37734,2.7262 -4.8846,5.3358 -7.42528,7.9108 -2.40733,2.9544 -5.44197,5.2831 -8.34134,7.7279 -1.93698,1.5685 -3.99064,2.9365 -6.08021,4.2843 -2.36584,1.9823 -4.70367,3.9882 -7.19215,5.8189 -3.2325,2.1464 -6.34574,4.4679 -9.44232,6.8041 -2.84791,2.2333 -5.94979,4.106 -8.90068,6.1867 -2.94396,1.655 -5.54382,3.8285 -8.51803,5.4229 -3.46792,1.6689 -6.79855,3.5287 -9.93369,5.7459 -2.87166,2.0147 -5.85431,3.7915 -8.96133,5.4262 -2.95911,1.8329 -6.14808,3.1963 -9.30457,4.6326 -2.47828,0.7607 -4.84329,1.8009 -7.26321,2.7127 -1.86781,0.5143 -3.85828,0.9518 -5.53152,1.946 -2.4672,0.4862 -4.84375,1.1899 -7.24343,1.9853 -3.59398,0.813 -7.18176,1.6864 -10.80286,2.3782 -1.46314,0.055 -3.08711,0.6238 -4.56101,0.3673 -0.5421,-0.094 -1.01325,-0.4287 -1.5296,-0.6181 -0.91397,-0.1884 -1.55683,-0.204 -2.28497,-0.7971 0,0 32.63304,25.1545 32.63304,25.1545 l 0,0 c 0.90839,-5e-4 1.74927,0.1334 2.64571,0.2776 2.29453,-0.03 4.57299,-0.6649 6.80335,-1.157 3.56365,-0.9433 7.16494,-1.7301 10.72448,-2.6912 2.70234,-0.6406 5.51677,-0.9449 8.02149,-2.2133 1.80975,-0.4505 3.54195,-1.2704 5.3025,-1.8758 2.39048,-1.0239 4.87933,-1.8137 7.20923,-2.9792 3.19628,-1.4763 6.25533,-3.21 9.3386,-4.9039 3.20754,-1.7323 6.25891,-3.7108 9.26144,-5.7737 3.08813,-2.0523 6.3473,-3.819 9.64727,-5.5101 3.0016,-1.7768 5.90709,-3.6955 8.79349,-5.6515 3.06334,-2.0167 6.00556,-4.2074 8.94101,-6.4027 3.08609,-2.3502 6.28193,-4.5454 9.49535,-6.7189 2.43505,-1.8168 4.72979,-3.829 7.29222,-5.4668 2.19042,-1.4459 4.13344,-3.1944 6.11858,-4.9015 2.9258,-2.5738 5.91456,-5.094 8.47563,-8.0418 2.59336,-2.6478 5.19976,-5.2887 7.61426,-8.1015 2.33728,-2.713 4.73392,-5.3668 7.12392,-8.0324 2.99427,-3.58 5.96188,-7.1809 9.00385,-10.7207 2.85253,-3.4663 5.65315,-6.9866 8.22609,-10.6642 2.48287,-3.3642 5.01139,-6.6936 7.42794,-10.1046 2.00432,-2.9466 4.08711,-5.8372 6.14086,-8.7495 2.45924,-3.4693 4.74228,-7.0427 6.49642,-10.9284 2.05131,-4.0968 4.02759,-8.2272 5.88749,-12.4139 1.64767,-3.6498 3.1985,-7.3512 5.02642,-10.9146 1.68043,-3.2945 3.13264,-6.6618 4.04855,-10.2558 0.97536,-4.0951 1.48604,-8.2662 2.30414,-12.3924 0.75162,-4.517 1.82244,-8.9684 2.81837,-13.4366 1.09776,-4.1045 2.2583,-8.1826 2.79748,-12.4093 0.84191,-3.9246 1.4821,-7.8916 2.35656,-11.8104 1.03277,-4.293 2.09774,-8.582 2.80046,-12.9388 0.67295,-3.8574 0.86985,-7.74 0.72277,-11.653 -0.0507,-4.0427 0.0172,-8.0868 -0.16131,-12.1272 -0.15634,-3.8328 -0.3265,-7.6904 -1.0246,-11.4695 -0.30752,-3.2381 -0.84976,-6.4016 -1.56,-9.5737 -0.66462,-3.7148 -1.23899,-7.4452 -2.07507,-11.1295 -0.84879,-4.6028 -1.83977,-9.2062 -3.4546,-13.61 -1.32341,-4.1417 -2.75086,-8.2327 -4.17525,-12.3426 -1.10099,-3.4124 -2.80534,-6.5 -4.63563,-9.5763 -1.16155,-3.3521 -2.33965,-6.6924 -3.68976,-9.9767 -1.1171,-2.9276 -2.15564,-5.927 -4.08219,-8.451 -2.50271,-2.9923 -4.57607,-6.3179 -7.24948,-9.15122 -3.03803,-3.0593 -6.23919,-5.9122 -9.72232,-8.46552 -0.52623,-0.41079 -1.00309,-0.89349 -1.5787,-1.23258 -12.09532,-7.12479 -24.27372,-14.10907 -36.41869,-21.14986 -0.49525,-0.2871 -0.99974,-0.55819 -1.5017,-0.83358 -0.47018,-0.25791 -1.87905,-1.03439 -1.41465,-0.76629 11.22358,6.47889 22.48382,12.89509 33.69266,19.39919 0.40689,0.23609 -0.85444,-0.3948 -1.28165,-0.59219 -2.15383,-1.74908 -4.60629,-2.98855 -6.69314,-4.80083 -12.92888,-7.39968 -26.95422,-18.5379 -42.41342,-22.77344 -4.08235,-1.08008 -8.27031,-1.63447 -12.46499,-2.08726 -5.06719,-0.57349 -10.13963,-1.21908 -15.25278,-1.10908 -3.36973,-0.044 -6.7402,-0.08 -10.1102,-0.061 -2.55781,0.072 -5.13033,0.13579 -7.64454,0.65909 -2.27732,0.52299 -4.56179,0.97788 -6.82685,1.54497 -2.71339,0.80899 -5.41177,1.65407 -8.10157,2.53556 -2.6621,0.87869 -5.34852,1.68598 -7.97045,2.67996 -3.3366,1.20998 -6.5343,2.74416 -9.72579,4.28883 -3.30531,1.48358 -6.74878,2.65695 -9.94315,4.38073 -2.57234,1.51158 -5.19732,3.00445 -7.48799,4.92362 -2.1091,1.79457 -4.00137,3.74704 -5.32956,6.2055 -1.17899,2.09977 -2.53907,4.07243 -3.69355,6.18401 -0.9633,2.08816 -2.02818,4.12883 -2.8454,6.28197 -0.66036,2.0578 -1.34794,4.1283 -1.69184,6.26412 -0.38313,2.0945 -0.86778,4.1431 -0.88328,6.2865 -0.3169,2.5806 -0.89685,5.1327 -0.69763,7.7485 -0.0263,2.8544 -0.005,5.7097 0.0438,8.5637 0.16175,2.863 0.50688,5.6908 1.53657,8.3961 0.98467,2.7379 1.80489,5.5097 2.64051,8.2924 0.68806,1.918 1.31884,3.9496 2.92258,5.3203 1.13335,1.0692 0.0921,-0.049 1.02179,1.4848 0.67266,1.1095 2.05649,1.5947 2.46515,2.9325 1.42044,1.5011 2.21221,3.4683 3.05977,5.3249 0.23895,0.8025 0.32686,1.2426 0.71401,1.9852 0.14278,0.2738 0.38349,0.4953 0.49679,0.7825 0.14041,0.3559 0.12424,0.7588 0.25339,1.1188 0.0916,0.2555 0.26805,0.4725 0.40207,0.7087 0.092,0.2903 0.18393,0.5806 0.2759,0.8709 1.64774,2.7563 -0.78817,-1.1151 0.98277,1.1063 0.18507,0.2321 0.23253,0.5493 0.39685,0.7963 0.15177,0.2282 0.40759,0.3799 0.54354,0.6178 0.18035,0.3156 0.26059,0.6782 0.39088,1.0173 0.1826,0.3066 0.36519,0.6131 0.54779,0.9197 1.63833,1.8347 2.52987,4.2838 4.39207,5.9781 1.68024,2.1355 3.48678,4.2237 6.01652,5.3921 1.96423,1.8202 4.02856,3.5061 6.10592,5.1848 0.61733,0.3221 1.35023,0.6619 1.89441,1.1104 0.31627,0.2606 0.55056,0.6113 0.87088,0.867 1.00255,0.8004 2.14575,1.4457 3.03905,2.398 0.66296,0.5093 1.38761,0.9377 2.03572,1.4656 0.33784,0.2751 0.58343,0.6559 0.93775,0.9098 0.88945,0.637 2.25364,1.1606 3.13133,1.882 1.88561,1.6236 3.96834,2.8914 5.99492,4.3205 1.40927,0.7666 0.73368,0.3241 2.02204,1.3344 12.03851,6.9857 24.20085,13.7599 36.20228,20.8083 11.31779,6.647 -45.84005,-25.5816 -34.15125,-19.6037 56.62546,28.9597 22.79318,15.253 37.41052,21.1499 2.30597,1.0838 4.73747,1.8888 7.16002,2.6722 2.55116,1.0015 5.21053,1.7703 7.90982,2.2608 3.20272,0.1542 6.41362,-0.073 9.61705,0.1297 0,0 -33.33848,-24.0952 -33.33848,-24.0952 z"
       inkscape:connector-curvature="0" />
  </g>
</svg>
